HIERARCHY
ROOT Hips
{
	OFFSET 0.00 0.00 0.00
	CHANNELS 6 Xposition Yposition Zposition Xrotation Yrotation Zrotation
	JOINT Spine
	{
		OFFSET 0.00000 1.66264 2.49395
		CHANNELS 3 Xrotation Yrotation Zrotation
		JOINT Spine1
		{
			OFFSET 0.00000 0.57743 3.27475
			CHANNELS 3 Xrotation Yrotation Zrotation
			JOINT Spine2
			{
				OFFSET 0.00000 0.28982 3.31262
				CHANNELS 3 Xrotation Yrotation Zrotation
				JOINT Spine3
				{
					OFFSET 0.00000 0.00000 3.32527
					CHANNELS 3 Xrotation Yrotation Zrotation
					JOINT Neck
					{
						OFFSET 0.00000 -1.24697 8.72884
						CHANNELS 3 Xrotation Yrotation Zrotation
						JOINT Head
						{
							OFFSET 0.00000 -0.79396 4.50279
							CHANNELS 3 Xrotation Yrotation Zrotation
							End Site
							{
								OFFSET 0.00000 0.00001 5.38279
							}
						}
					}
					JOINT RightShoulder
					{
						OFFSET -1.14808 -1.91346 6.19963
						CHANNELS 3 Xrotation Yrotation Zrotation
						JOINT RightArm
						{
							OFFSET -5.70212 0.00000 0.00000
							CHANNELS 3 Xrotation Yrotation Zrotation
							JOINT RightForeArm
							{
								OFFSET -10.82477 0.00000 0.00000
								CHANNELS 3 Xrotation Yrotation Zrotation
								JOINT RightHand
								{
									OFFSET -10.02856 0.00000 0.00000
									CHANNELS 3 Xrotation Yrotation Zrotation
									JOINT RightHandEnd
									{
										OFFSET -2.68345 0.00000 0.00000
										CHANNELS 3 Xrotation Yrotation Zrotation
										End Site
										{
											OFFSET -2.68345 0.00000 0.00000
										}
									}
									JOINT RightHandThumb1
									{
										OFFSET -1.07338 -1.78897 -0.71559
										CHANNELS 3 Yrotation Xrotation Zrotation
										End Site
										{
											OFFSET -2.59202 -0.69453 0.00000
										}
									}
								}
							}
						}
					}
					JOINT LeftShoulder
					{
						OFFSET 1.14808 -1.91346 6.19963
						CHANNELS 3 Xrotation Yrotation Zrotation
						JOINT LeftArm
						{
							OFFSET 5.70212 0.00000 0.00000
							CHANNELS 3 Xrotation Yrotation Zrotation
							JOINT LeftForeArm
							{
								OFFSET 10.82477 0.00000 0.00000
								CHANNELS 3 Xrotation Yrotation Zrotation
								JOINT LeftHand
								{
									OFFSET 10.02856 0.00000 0.00000
									CHANNELS 3 Xrotation Yrotation Zrotation
									JOINT LeftHandEnd
									{
										OFFSET 2.68345 0.00000 0.00000
										CHANNELS 3 Xrotation Yrotation Zrotation
										End Site
										{
											OFFSET 2.68345 0.00000 0.00000
										}
									}
									JOINT LeftHandThumb1
									{
										OFFSET 1.07338 -1.78897 -0.71559
										CHANNELS 3 Yrotation Xrotation Zrotation
										End Site
										{
											OFFSET 2.59202 -0.69453 0.00000
										}
									}
								}
							}
						}
					}
				}
			}
		}
	}
	JOINT RightUpLeg
	{
		OFFSET -3.40597 0.00000 -0.99500
		CHANNELS 3 Xrotation Yrotation Zrotation
		JOINT RightLeg
		{
			OFFSET 0.00001 0.00000 -17.05191
			CHANNELS 3 Xrotation Yrotation Zrotation
			JOINT RightFoot
			{
				OFFSET 0.00001 0.00000 -15.93260
				CHANNELS 3 Xrotation Yrotation Zrotation
				JOINT RightToeBase
				{
					OFFSET 0.00000 -4.98016 -1.81263
					CHANNELS 3 Xrotation Yrotation Zrotation
					End Site
					{
						OFFSET 0.00000 -2.75539 -0.00000
					}
				}
			}
		}
	}
	JOINT LeftUpLeg
	{
		OFFSET 3.40597 0.00000 -0.99500
		CHANNELS 3 Xrotation Yrotation Zrotation
		JOINT LeftLeg
		{
			OFFSET 0.00001 0.00000 -17.05191
			CHANNELS 3 Xrotation Yrotation Zrotation
			JOINT LeftFoot
			{
				OFFSET 0.00001 0.00000 -15.93260
				CHANNELS 3 Xrotation Yrotation Zrotation
				JOINT LeftToeBase
				{
					OFFSET 0.00000 -4.98016 -1.81263
					CHANNELS 3 Xrotation Yrotation Zrotation
					End Site
					{
						OFFSET 0.00000 -2.75539 -0.00000
					}
				}
			}
		}
	}
}
MOTION
Frames: 9
Frame Time: 0.008342
 -41.9225 -16.8585 35.8675 1.1411 0.1096 94.2487 -2.4324 -0.4652 0.2031 -2.0321 -0.8353 -0.0105 -0.2468 -0.7508 0.9720 2.0225 -0.8740 0.7772 12.7818 2.6772 8.6163 0.2864 8.2331 13.2518 -1.8937 5.0050 -2.5796 -21.1119 -17.7354 -8.0736 0.0000 0.0000 22.4956 -13.9547 36.5721 6.9814 -0.0000 -0.0000 0.0000 0.0000 -0.0000 -0.0000 -1.2838 -2.6111 2.2553 -5.3166 16.0152 -7.8301 -0.0000 -0.0000 -15.1422 -7.6177 -24.4691 -4.2386 0.0000 0.0000 -0.0000 -0.0000 0.0000 0.0000 -0.1160 0.6806 -23.5899 2.2673 0.0000 0.0000 -4.2954 1.1587 4.5757 -0.2007 0.0000 -0.0000 1.2893 1.3493 26.0874 -2.3375 0.0000 -0.0000 0.3966 3.7354 2.8654 0.4857 0.0000 0.0000
 -41.9229 -16.8585 35.8675 1.1417 0.1086 94.2447 -2.4343 -0.4627 0.2042 -2.0321 -0.8375 -0.0112 -0.2449 -0.7464 0.9730 2.0232 -0.8709 0.7747 12.7908 2.6812 8.5800 0.2941 8.2013 13.1847 -1.8927 4.9971 -2.5730 -21.1083 -17.7310 -8.0667 0.0000 0.0000 22.4982 -13.9638 36.5652 6.9925 0.0000 -0.0000 -0.0000 -0.0000 -0.0000 0.0000 -1.2829 -2.6132 2.2630 -5.3102 16.0237 -7.8428 -0.0000 -0.0000 -15.1347 -7.6116 -24.4685 -4.2349 0.0000 -0.0000 -0.0000 0.0000 0.0000 0.0000 -0.1162 0.6813 -23.5863 2.2678 0.0000 0.0000 -4.2971 1.1619 4.5761 -0.1973 0.0000 -0.0000 1.2856 1.3485 26.1154 -2.3278 0.0000 -0.0000 0.3927 3.7392 2.8409 0.4839 0.0000 0.0000
 -41.9235 -16.8585 35.8675 1.1429 0.1071 94.2403 -2.4364 -0.4592 0.2054 -2.0333 -0.8396 -0.0113 -0.2413 -0.7414 0.9742 2.0242 -0.8662 0.7711 12.8028 2.6850 8.5315 0.3048 8.1612 13.0946 -1.8928 4.9862 -2.5643 -21.1063 -17.7250 -8.0606 0.0000 0.0000 22.5026 -13.9746 36.5557 7.0067 -0.0000 0.0000 -0.0000 0.0000 -0.0000 -0.0000 -1.2805 -2.6168 2.2723 -5.3036 16.0356 -7.8603 -0.0000 -0.0000 -15.1243 -7.6045 -24.4671 -4.2318 -0.0000 -0.0000 -0.0000 0.0000 0.0000 -0.0000 -0.1160 0.6826 -23.5827 2.2681 0.0000 0.0000 -4.2993 1.1659 4.5766 -0.1935 0.0000 -0.0000 1.2805 1.3476 26.1529 -2.3142 0.0000 -0.0000 0.3876 3.7446 2.8069 0.4803 0.0000 0.0000
 -41.9242 -16.8584 35.8675 1.1446 0.1050 94.2358 -2.4392 -0.4552 0.2068 -2.0348 -0.8413 -0.0114 -0.2366 -0.7357 0.9754 2.0253 -0.8605 0.7668 12.8180 2.6881 8.4710 0.3186 8.1135 12.9817 -1.8931 4.9722 -2.5548 -21.1060 -17.7179 -8.0533 0.0000 0.0000 22.5076 -13.9880 36.5442 7.0250 0.0000 0.0000 0.0000 -0.0000 -0.0000 -0.0000 -1.2784 -2.6217 2.2826 -5.2958 16.0506 -7.8817 -0.0000 -0.0000 -15.1116 -7.5973 -24.4655 -4.2290 -0.0000 -0.0000 0.0000 -0.0000 -0.0000 -0.0000 -0.1153 0.6844 -23.5788 2.2682 0.0000 0.0000 -4.3018 1.1706 4.5765 -0.1892 0.0000 -0.0000 1.2747 1.3467 26.1967 -2.2979 0.0000 -0.0000 0.3814 3.7511 2.7662 0.4752 0.0000 0.0000
 -41.9249 -16.8583 35.8675 1.1467 0.1024 94.2315 -2.4423 -0.4504 0.2084 -2.0368 -0.8429 -0.0113 -0.2311 -0.7289 0.9767 2.0267 -0.8539 0.7617 12.8362 2.6900 8.3985 0.3355 8.0593 12.8471 -1.8935 4.9548 -2.5448 -21.1082 -17.7098 -8.0452 0.0000 0.0000 22.5133 -13.9981 36.5322 7.0405 0.0000 0.0000 0.0000 0.0000 -0.0000 0.0000 -1.2752 -2.6278 2.2940 -5.2889 16.0684 -7.9075 -0.0000 -0.0000 -15.0970 -7.5931 -24.4625 -4.2291 0.0000 0.0000 -0.0000 -0.0000 0.0000 0.0000 -0.1139 0.6865 -23.5748 2.2679 0.0000 0.0000 -4.3045 1.1758 4.5756 -0.1849 0.0000 -0.0000 1.2682 1.3458 26.2467 -2.2787 0.0000 -0.0000 0.3739 3.7580 2.7188 0.4691 0.0000 0.0000
 -41.9257 -16.8581 35.8674 1.1490 0.0992 94.2277 -2.4461 -0.4449 0.2104 -2.0391 -0.8445 -0.0112 -0.2244 -0.7213 0.9778 2.0284 -0.8463 0.7561 12.8570 2.6909 8.3151 0.3545 7.9991 12.6936 -1.8949 4.9345 -2.5353 -21.1120 -17.7017 -8.0361 0.0000 0.0000 22.5197 -14.0092 36.5185 7.0569 0.0000 0.0000 -0.0000 0.0000 0.0000 0.0000 -1.2721 -2.6350 2.3062 -5.2825 16.0882 -7.9371 -0.0000 -0.0000 -15.0809 -7.5912 -24.4586 -4.2302 0.0000 0.0000 0.0000 0.0000 0.0000 0.0000 -0.1119 0.6887 -23.5703 2.2671 0.0000 0.0000 -4.3069 1.1811 4.5732 -0.1811 0.0000 -0.0000 1.2611 1.3447 26.3009 -2.2572 0.0000 -0.0000 0.3653 3.7647 2.6664 0.4630 0.0000 0.0000
 -41.9265 -16.8580 35.8673 1.1515 0.0955 94.2248 -2.4502 -0.4388 0.2126 -2.0417 -0.8459 -0.0112 -0.2171 -0.7129 0.9783 2.0302 -0.8381 0.7502 12.8803 2.6903 8.2219 0.3748 7.9345 12.5245 -1.8957 4.9116 -2.5265 -21.1187 -17.6942 -8.0263 0.0000 0.0000 22.5267 -14.0168 36.5036 7.0691 -0.0000 0.0000 0.0000 0.0000 -0.0000 -0.0000 -1.2685 -2.6433 2.3190 -5.2780 16.1095 -7.9696 -0.0000 -0.0000 -15.0640 -7.5898 -24.4545 -4.2330 0.0000 -0.0000 -0.0000 0.0000 0.0000 -0.0000 -0.1091 0.6908 -23.5654 2.2659 0.0000 0.0000 -4.3089 1.1862 4.5689 -0.1782 0.0000 -0.0000 1.2535 1.3433 26.3579 -2.2339 0.0000 -0.0000 0.3553 3.7703 2.6102 0.4575 0.0000 0.0000
 -41.9273 -16.8578 35.8672 1.1540 0.0914 94.2229 -2.4545 -0.4318 0.2150 -2.0446 -0.8475 -0.0112 -0.2090 -0.7042 0.9780 2.0320 -0.8293 0.7440 12.9055 2.6885 8.1204 0.3952 7.8664 12.3438 -1.8965 4.8866 -2.5188 -21.1274 -17.6881 -8.0159 0.0000 0.0000 22.5343 -14.0228 36.4875 7.0769 0.0000 -0.0000 0.0000 -0.0000 -0.0000 0.0000 -1.2646 -2.6527 2.3324 -5.2756 16.1316 -8.0043 -0.0000 -0.0000 -15.0473 -7.5915 -24.4497 -4.2394 0.0000 -0.0000 0.0000 -0.0000 -0.0000 0.0000 -0.1055 0.6927 -23.5597 2.2640 0.0000 0.0000 -4.3101 1.1908 4.5623 -0.1768 0.0000 -0.0000 1.2456 1.3416 26.4165 -2.2092 0.0000 -0.0000 0.3442 3.7743 2.5512 0.4534 0.0000 0.0000
 -41.9281 -16.8577 35.8670 1.1563 0.0868 94.2224 -2.4586 -0.4241 0.2177 -2.0476 -0.8489 -0.0113 -0.2008 -0.6953 0.9763 2.0340 -0.8200 0.7377 12.9320 2.6854 8.0124 0.4153 7.7958 12.1557 -1.8962 4.8602 -2.5124 -21.1382 -17.6843 -8.0051 0.0000 0.0000 22.5420 -14.0242 36.4703 7.0785 -0.0000 0.0000 -0.0000 -0.0000 -0.0000 0.0000 -1.2607 -2.6630 2.3460 -5.2756 16.1536 -8.0399 -0.0000 -0.0000 -15.0317 -7.5953 -24.4452 -4.2479 0.0000 -0.0000 0.0000 -0.0000 0.0000 0.0000 -0.1011 0.6941 -23.5527 2.2615 0.0000 0.0000 -4.3104 1.1945 4.5528 -0.1770 0.0000 -0.0000 1.2375 1.3393 26.4758 -2.1834 0.0000 -0.0000 0.3322 3.7764 2.4904 0.4512 0.0000 0.0000
